<?xml version="1.0" encoding="utf-8"?>
<!-- Generator: Adobe Illustrator 22.1.0, SVG Export Plug-In . SVG Version: 6.00 Build 0)  -->
<svg version="1.1" id="图层_1" xmlns="http://www.w3.org/2000/svg" xmlns:xlink="http://www.w3.org/1999/xlink" x="0px" y="0px"
	 viewBox="0 0 50 50" style="enable-background:new 0 0 50 50;" xml:space="preserve">
<style type="text/css">
	.st0{display:none;}
	.st1{display:inline;fill:none;}
</style>
<g class="st0">
	<polygon class="st1" points="16.1,62.1 19.7,62.1 19.7,62.1 16.1,62.1 	"/>
</g>
<g>
	<path d="M10.061,10.766c1.301,1.472,2.41,3.69,2.282,5.653c-0.106,1.579-0.917,2.475-1.813,2.73c-0.726,0.192-1.066,0-1.344-0.555
		l-0.747-1.386v4.757H5.73V3.022L9.229,3.47l-0.79,0.704v0.149h1.173l0.576-0.811l3.029,1.686l-1.109,0.661L10.061,10.766z
		 M9.08,10.915l0.363-5.632H8.439v11.306c0.96,0.298,1.472-0.128,1.494-1.28C9.933,13.432,9.677,12.045,9.08,10.915z M20.343,5.134
		h-6.719l-0.512-0.959h9.365l0.875-0.811l1.066,1.771h-1.088v11.328c0,2.73-1.066,4.693-2.453,5.375
		c-0.747,0.362-1.28,0.213-1.643-0.299l-1.749-2.368c2.197,0.363,2.858-0.405,2.858-3.093V5.134z M16.78,17.08v-0.555h-0.981v1.28
		h-2.582V6.521l3.115,0.405L15.799,7.31v0.362h0.981l0.469-0.661l2.667,0.981l-0.533,0.725v8.362H16.78z M15.799,15.565h0.981V8.632
		h-0.981V15.565z"/>
	<path d="M30.521,14.733h-0.725c-0.385,3.563-1.451,5.695-3.222,7.359c0.769-1.941,1.067-5.354,1.067-10.175V3.214l2.879,0.469
		l-0.555,0.576V4.43h0.576l0.405-0.662l2.368,0.811l-0.47,0.811v11.818c0,3.008-0.64,4.053-1.92,4.671
		c-0.405,0.213-0.768,0.128-1.045-0.213l-1.259-1.6c1.408,0.085,1.898-0.555,1.898-2.624V14.733z M29.903,13.773h0.618v-3.69h-0.555
		v1.259C29.967,12.216,29.945,13.027,29.903,13.773z M29.967,9.123h0.555V5.39h-0.555V9.123z M36.281,14.733h-0.726
		c-0.384,3.563-1.45,5.695-3.221,7.359c0.768-1.941,1.066-5.354,1.066-10.175V3.214l2.88,0.469l-0.555,0.576V4.43h0.576l0.405-0.662
		l2.347,0.811l-0.47,0.811v11.818c0,3.008-0.618,4.053-1.898,4.671c-0.405,0.213-0.768,0.128-1.045-0.213l-1.259-1.6
		c1.408,0.085,1.898-0.555,1.898-2.624V14.733z M35.663,13.773h0.618v-3.69h-0.555v1.259C35.727,12.216,35.705,13.027,35.663,13.773
		z M35.727,9.123h0.555V5.39h-0.555V9.123z M39.246,17.677l-0.426-0.981h2.367l0.661-0.768l0.96,1.75H39.246z M39.204,4.43
		l1.792,0.298c0.085-0.618,0.128-1.322,0.085-1.813l2.026,0.277c0.32,0.064,0.299,0.32,0.214,0.576
		c-0.342,0.619-0.812,1.173-1.387,1.643h1.344l0.362-0.683l2.048,1.045L45.24,6.691V8.76c0,1.92-0.426,3.264-1.472,3.648
		c-0.555,0.192-0.811,0.149-1.045-0.341l-0.747-1.685c0.619,0.064,1.28,0.192,1.28-1.067V6.371h-1.749v7.04h1.472l0.342-0.64
		l2.474,0.981l-0.426,0.854v2.965c0,2.688-1.259,4.011-2.262,4.395c-0.598,0.234-0.981,0.064-1.28-0.491l-1.151-2.026
		c1.493,0.427,2.24-0.128,2.24-1.898v-3.179h-1.408v0.79h-2.304V4.43z M41.699,10.104c0.149-1.152,0.107-2.646-0.063-3.499
		c0.981,0.576,2.091,2.624,1.28,3.008L41.699,10.104z"/>
</g>
<g>
	<path d="M9.016,40.55l2.453,1.237c0.512,0.256,0.427,0.683,0.235,0.96c-1.131,1.771-3.947,3.541-6.378,4.053
		C6.648,45.648,8.439,42.661,9.016,40.55z M16.524,39.974v2.368c0,2.495-0.747,4.181-2.005,4.8c-0.64,0.319-1.365,0.17-1.898-0.491
		l-1.515-2.005c2.091,0.299,2.347-0.598,2.347-2.944v-1.728H6.456l-0.491-0.96h7.487V36.71l3.882,0.512l-0.811,0.683v1.109h5.567
		l0.896-0.811l1.045,1.771H16.524z M11.213,31.719H7.928l-0.469-0.96h3.989c0.149-0.704,0.235-1.408,0.299-2.155l2.752,0.641
		c0.448,0.128,0.661,0.341,0.512,0.874c-0.064,0.235-0.128,0.427-0.192,0.641h1.792l0.64-0.981l3.136,1.322l-0.64,0.811v2.858
		c0,0.448,0.128,0.683,0.619,0.683h0.341c0.96,0,1.28-0.725,0.96-2.603l2.069,0.789c0.704,0.277,0.747,0.641,0.534,1.729
		c-0.32,1.728-1.173,2.197-2.603,2.176h-2.88c-1.13,0-2.069-0.896-2.069-2.646v-3.178h-2.197c-1.344,3.647-3.861,5.759-8.021,6.484
		C8.952,36.604,10.466,34.406,11.213,31.719z M21.666,46.864c-1.216-2.155-2.987-4.821-4.586-5.931
		c5.994,0.938,7.253,3.008,6.186,4.16L21.666,46.864z"/>
	<path d="M32.569,37.713c-0.17-1.046-0.704-2.795-1.259-4.032c-1.322,2.154-3.008,3.968-4.714,4.928
		c1.621-2.453,2.837-6.762,2.986-9.983l2.73,0.704c0.683,0.128,0.789,0.533,0.619,1.024c-0.363,0.938-0.769,1.834-1.259,2.688
		c2.581,0.938,3.903,2.752,2.815,3.456L32.569,37.713z M32.441,46.117c-0.106-0.981-0.555-2.538-1.023-3.754
		c-1.323,2.389-3.008,4.181-4.821,5.269c1.621-2.496,2.837-7.082,2.986-10.304l2.581,0.832c0.683,0.128,0.769,0.533,0.598,1.024
		c-0.256,0.811-0.576,1.578-0.917,2.304c2.068,0.96,3.626,2.858,2.56,3.478L32.441,46.117z M34.298,47.248l-0.32-0.96h1.387V28.902
		l3.925,0.47l-0.854,0.704v0.17h2.283l0.618-0.832l3.093,1.131l-0.683,0.875v14.868h0.086l0.746-0.747l1.067,1.707H34.298z
		 M38.436,35.537h2.24v-4.331h-2.24V35.537z M38.436,40.849h2.24v-4.352h-2.24V40.849z M38.436,46.288h2.24v-4.479h-2.24V46.288z"/>
</g>
<g>
</g>
<g>
</g>
<g>
</g>
<g>
</g>
<g>
</g>
</svg>
