<?xml version="1.0" encoding="utf-8"?>
<!-- Generator: Adobe Illustrator 22.1.0, SVG Export Plug-In . SVG Version: 6.00 Build 0)  -->
<svg version="1.1" id="图层_1" xmlns="http://www.w3.org/2000/svg" xmlns:xlink="http://www.w3.org/1999/xlink" x="0px" y="0px"
	 viewBox="0 0 50 50" style="enable-background:new 0 0 50 50;" xml:space="preserve">
<style type="text/css">
	.st0{display:none;}
	.st1{display:inline;fill:none;}
</style>
<g class="st0">
	<polygon class="st1" points="16.1,62.1 19.7,62.1 19.7,62.1 16.1,62.1 	"/>
</g>
<g>
	<path d="M6.982,10.634c1.543,1.746,2.859,4.377,2.707,6.704c-0.126,1.872-1.088,2.935-2.15,3.238c-0.86,0.228-1.265,0-1.594-0.658
		L5.06,18.274v5.642H1.846V1.451l4.149,0.531L5.06,2.817v0.177h1.391l0.683-0.961l3.593,1.999L9.411,4.815L6.982,10.634z
		 M5.818,10.812l0.43-6.679H5.06v13.409c1.138,0.354,1.746-0.152,1.771-1.518C6.83,13.797,6.527,12.152,5.818,10.812z M19.176,3.955
		h-7.969L10.6,2.817h11.106l1.037-0.961l1.265,2.1h-1.29v13.434c0,3.238-1.265,5.566-2.91,6.375
		c-0.885,0.43-1.518,0.253-1.948-0.354l-2.075-2.808c2.606,0.43,3.39-0.48,3.39-3.668V3.955z M14.951,18.123v-0.658h-1.164v1.518
		h-3.061V5.6l3.693,0.481l-0.632,0.455v0.43h1.164l0.557-0.784l3.163,1.164l-0.633,0.86v9.917H14.951z M13.788,16.327h1.164V8.104
		h-1.164V16.327z"/>
	<path d="M31.246,15.34h-0.86c-0.455,4.225-1.72,6.755-3.82,8.728c0.911-2.302,1.266-6.35,1.266-12.067V1.678l3.415,0.557
		l-0.658,0.683v0.203h0.684l0.48-0.785l2.809,0.961l-0.557,0.961v14.016c0,3.567-0.759,4.807-2.277,5.541
		c-0.48,0.253-0.91,0.152-1.239-0.253l-1.493-1.897c1.67,0.101,2.252-0.658,2.252-3.112V15.34z M30.513,14.202h0.733V9.825h-0.658
		v1.493C30.588,12.354,30.563,13.316,30.513,14.202z M30.588,8.686h0.658V4.259h-0.658V8.686z M38.077,15.34h-0.86
		c-0.455,4.225-1.721,6.755-3.82,8.728c0.911-2.302,1.265-6.35,1.265-12.067V1.678l3.416,0.557l-0.658,0.683v0.203h0.684l0.48-0.785
		l2.782,0.961L40.81,4.259v14.016c0,3.567-0.734,4.807-2.252,5.541c-0.48,0.253-0.911,0.152-1.24-0.253l-1.492-1.897
		c1.67,0.101,2.252-0.658,2.252-3.112V15.34z M37.343,14.202h0.734V9.825h-0.658v1.493C37.419,12.354,37.394,13.316,37.343,14.202z
		 M37.419,8.686h0.658V4.259h-0.658V8.686z M41.594,18.831l-0.506-1.164h2.808l0.784-0.911l1.139,2.074H41.594z M41.543,3.121
		l2.125,0.354c0.102-0.733,0.151-1.568,0.102-2.15l2.403,0.329c0.379,0.076,0.354,0.379,0.253,0.683
		c-0.405,0.734-0.962,1.392-1.645,1.948h1.594l0.43-0.81l2.429,1.24l-0.531,1.088v2.454c0,2.277-0.506,3.871-1.745,4.326
		c-0.658,0.228-0.962,0.177-1.24-0.405l-0.885-1.999c0.733,0.076,1.518,0.228,1.518-1.265V5.423h-2.074v8.349h1.745l0.405-0.759
		l2.935,1.164l-0.506,1.012v3.517c0,3.188-1.493,4.756-2.682,5.212c-0.709,0.278-1.164,0.076-1.519-0.582l-1.366-2.403
		c1.771,0.506,2.657-0.152,2.657-2.252v-3.77h-1.67v0.936h-2.732V3.121z M44.503,9.85c0.177-1.366,0.126-3.137-0.076-4.149
		c1.164,0.683,2.479,3.111,1.519,3.567L44.503,9.85z"/>
</g>
<g>
	<path d="M5.743,40.759l2.91,1.468c0.607,0.303,0.506,0.809,0.278,1.139c-1.341,2.1-4.68,4.199-7.564,4.807
		C2.935,46.805,5.06,43.264,5.743,40.759z M14.648,40.076v2.808c0,2.96-0.885,4.959-2.378,5.692
		c-0.759,0.38-1.619,0.203-2.251-0.582l-1.796-2.378c2.479,0.354,2.783-0.708,2.783-3.491v-2.049H2.707l-0.582-1.139h8.88v-2.732
		l4.604,0.607l-0.961,0.81v1.315h6.604l1.063-0.961l1.239,2.1H14.648z M8.349,30.285H4.453l-0.557-1.139h4.731
		c0.177-0.835,0.278-1.67,0.354-2.555l3.264,0.759c0.531,0.151,0.784,0.405,0.607,1.037c-0.076,0.278-0.152,0.506-0.228,0.759h2.125
		l0.759-1.164l3.719,1.568l-0.759,0.962v3.39c0,0.531,0.152,0.811,0.734,0.811h0.405c1.138,0,1.518-0.861,1.138-3.087l2.454,0.937
		c0.835,0.328,0.885,0.758,0.632,2.049c-0.379,2.049-1.391,2.605-3.086,2.58H17.33c-1.341,0-2.454-1.063-2.454-3.137v-3.77H12.27
		c-1.594,4.326-4.579,6.83-9.512,7.691C5.667,36.078,7.463,33.473,8.349,30.285z M20.745,48.248
		c-1.442-2.556-3.542-5.719-5.439-7.033c7.109,1.113,8.602,3.566,7.336,4.933L20.745,48.248z"/>
	<path d="M33.676,37.395c-0.203-1.24-0.836-3.314-1.494-4.781c-1.568,2.555-3.566,4.705-5.59,5.844
		c1.922-2.91,3.365-8.02,3.541-11.84l3.238,0.834c0.811,0.152,0.938,0.633,0.734,1.215c-0.43,1.113-0.91,2.176-1.492,3.188
		c3.061,1.113,4.629,3.264,3.34,4.099L33.676,37.395z M33.523,47.361c-0.127-1.163-0.658-3.01-1.215-4.452
		c-1.568,2.833-3.566,4.959-5.717,6.249c1.922-2.96,3.365-8.399,3.541-12.219l3.063,0.986c0.809,0.151,0.91,0.633,0.707,1.214
		c-0.303,0.962-0.682,1.872-1.088,2.732c2.455,1.139,4.301,3.39,3.037,4.124L33.523,47.361z M35.725,48.703l-0.379-1.139h1.645
		V26.945l4.654,0.557l-1.012,0.835v0.202h2.707l0.732-0.986l3.67,1.341l-0.811,1.037v17.634h0.102l0.885-0.886l1.266,2.024H35.725z
		 M40.633,34.813h2.656v-5.136h-2.656V34.813z M40.633,41.113h2.656v-5.161h-2.656V41.113z M40.633,47.564h2.656v-5.313h-2.656
		V47.564z"/>
</g>
<g>
</g>
<g>
</g>
<g>
</g>
<g>
</g>
<g>
</g>
</svg>
